<svg xmlns="http://www.w3.org/2000/svg" xmlns:xlink="http://www.w3.org/1999/xlink" viewBox="0 0 500 300"><defs><path id="reuse-0" stroke-width=".156" d="M168.84 138.216l-.354.006-.066.522.036.084.09-.006.456-.306-.162-.3"/></defs><path fill="#c60b1e" d="M0 0h500v300H0z"/><path fill="#ffc400" d="M0 75h500v150H0z"/><g stroke="#000" stroke-width=".39"><g transform="scale(.6)"><g stroke-width=".26"><path fill="#ad1519" stroke-linejoin="round" d="M167.99 222.24s-.51 0-.79-.16-1.13-.96-1.13-.96l-.68-.49-.62-.85s-.73-1.18-.4-2.09c.34-.91.91-1.23 1.42-1.5.51-.26 1.58-.59 1.58-.59s.85-.37 1.13-.42c.28-.06 1.3-.32 1.3-.32s.28-.16.56-.27c.29-.11.68-.11.91-.16.22-.06.79-.24 1.13-.26.52-.02 1.36.1 1.64.1.28 0 1.24.05 1.64.05.39 0 1.8-.11 2.2-.11.39 0 .68-.05 1.13 0 .45.06 1.24.32 1.47.43.23.11 1.58.59 2.09.75.51.16 1.75.37 2.32.64.56.27.91.72 1.19 1.1.28.37.34.78.45 1.05.11.26.11.84 0 1.11-.11.26-.51.81-.51.81l-.62 1.02-.79.64s-.57.54-1.02.48c-.45-.04-5.03-.86-7.97-.86-2.94 0-7.64.86-7.64.86z"/><g fill="#c8b100"><ellipse cx="175.66" cy="215.68" rx="1.38" ry="2.5"/><ellipse cx="175.68" cy="215.68" rx=".64" ry="2.3"/><ellipse cx="175.68" cy="213.04" stroke="none" rx=".93" ry=".87"/><path stroke-width=".3" d="M176.96 212.74v.58h-2.53v-.58h.94v-1.32h-.62v-.57h.62v-.57h.6v.57h.62v.57h-.62v1.32h.99"/><path fill="none" d="M175.94 212.2a.93.87 0 11-.5 0"/><path d="M175.68 222.08h-4.81l-.11-1.18-.23-1.23-.23-1.53c-1.33-1.75-2.55-2.9-2.96-2.65.1-.32.22-.56.47-.71 1.18-.7 3.61.98 5.44 3.74.16.25.32.5.46.75h3.97c.14-.25.3-.5.46-.75 1.82-2.76 4.26-4.44 5.43-3.74.26.15.37.39.47.71-.41-.24-1.62.9-2.96 2.65l-.23 1.53-.23 1.23-.1 1.18z"/><path fill="none" d="M167.55 215.44c.91-.53 3.02 1.14 4.73 3.74m11.55-3.74c-.91-.53-3.01 1.14-4.73 3.74"/></g><g id="a" fill="#c8b100"><path d="M168.58 224.25c-.2-.57-.58-1.08-.58-1.08 1.95-.57 4.66-.93 7.67-.94 3.01.01 5.75.37 7.69.94 0 0-.22.38-.52.91-.17.3-.39.81-.38.81-1.75-.54-4.02-.81-6.8-.82-2.79.01-5.46.35-6.86.86.02 0-.1-.32-.23-.68h.01"/><path d="M175.67 226.73c2.43-.01 5.11-.38 6.1-.63.66-.2 1.05-.49.98-.84-.04-.16-.18-.3-.37-.38-1.46-.47-4.07-.8-6.71-.8-2.63 0-5.27.33-6.72.8-.19.08-.33.22-.37.38-.07.35.32.64.98.84.99.25 3.68.62 6.11.63zM183.48 222.08l-.59-.53s-.57.34-1.28.24c-.7-.11-.93-.97-.93-.97s-.79.67-1.44.62c-.65-.06-1.07-.62-1.07-.62s-.71.51-1.33.46c-.62-.06-1.21-.83-1.21-.83s-.63.8-1.25.86c-.62.05-1.13-.54-1.13-.54s-.28.59-1.07.72-1.47-.62-1.47-.62-.45.73-.99.92c-.54.18-1.24-.27-1.24-.27s-.12.27-.2.43c-.08.16-.31.19-.31.19l.18.47c1.93-.56 4.56-.91 7.53-.91 2.97 0 5.67.35 7.61.92l.2-.54z"/><path d="M175.69 219.49l.28.05c-.05.12-.06.24-.06.38 0 .58.5 1.05 1.12 1.05.49 0 .91-.31 1.06-.73.01.01.11-.38.15-.38.03 0 .03.41.05.41.07.53.55.89 1.1.89.62 0 1.11-.47 1.11-1.06 0-.04 0-.08-.01-.12l.35-.35.19.44c-.07.14-.1.29-.1.46 0 .56.47 1.01 1.06 1.01.37 0 .69-.18.88-.45l.23-.29v.36c0 .34.14.66.49.71 0 0 .38.03.91-.38.52-.41.8-.75.8-.75l.03.42s-.51.84-.97 1.1c-.25.15-.64.31-.95.25-.32-.05-.55-.31-.67-.61-.23.14-.51.22-.8.22-.63 0-1.2-.35-1.42-.86-.29.31-.69.5-1.16.5-.51 0-.97-.23-1.26-.58-.28.27-.67.43-1.09.43-.55 0-1.05-.28-1.33-.69-.29.41-.78.69-1.34.69-.42 0-.81-.16-1.09-.43-.29.35-.75.58-1.25.58-.48 0-.88-.19-1.17-.5-.22.51-.79.86-1.42.86-.29 0-.56-.08-.79-.22-.12.3-.35.56-.68.61-.3.06-.69-.1-.94-.25-.47-.26-1.02-1.1-1.02-1.1l.07-.42s.29.34.81.75.91.38.91.38c.34-.05.49-.37.49-.71v-.36l.22.29c.19.27.51.45.88.45.59 0 1.06-.45 1.06-1.01a.89.89 0 00-.1-.46l.19-.44.35.35c-.01.04-.01.08-.01.12 0 .59.49 1.06 1.11 1.06.55 0 1.03-.36 1.11-.89.01 0 .01-.41.04-.41.05 0 .14.39.16.38.14.42.56.73 1.06.73.61 0 1.11-.47 1.11-1.05 0-.14 0-.26-.05-.38l.29-.05z"/><path stroke-linejoin="round" d="M175.67 222.23c-3.01.01-5.72.37-7.67.94-.13.04-.29-.06-.33-.17-.04-.13.05-.28.18-.32 1.95-.6 4.73-.98 7.82-.98s5.88.38 7.83.98c.13.04.22.19.18.32-.04.11-.2.21-.33.17-1.95-.57-4.67-.93-7.68-.94z"/><path d="M165.43 221c-.01.01-.38-.48-.65-.73-.2-.18-.68-.33-.68-.33 0-.08.28-.28.58-.28.18 0 .35.07.45.2l.04-.2s.24.05.35.32c.12.29.05.72.05.72s-.05.2-.14.3zM167.32 220.22l-.11.66-1.4.15-.21-.12.04-.23 1.06-.87.62.41"/><path d="M165.45 220.75c.12-.12.36-.09.53.06.18.15.24.38.12.5-.12.13-.36.1-.53-.06-.18-.15-.24-.38-.12-.5zM168.02 220.88c-.06-.18 0-.37.13-.42.14-.03.3.09.37.27.06.19 0 .38-.14.42-.13.04-.29-.08-.36-.27zM168.67 220.04l.51.48 1.22-.66.09-.21-.17-.17-1.4-.12-.25.68"/><path d="M170.08 217.76l-.67.64.86 1.14.23.09.17-.18.3-1.37-.89-.32"/><path d="M172.36 219.3l-.26.63-1.4-.13-.18-.16.1-.22 1.22-.64.52.52"/><ellipse cx="170.51" cy="219.65" rx=".49" ry=".47"/><path d="M172.87 219.95c-.03-.2.07-.37.21-.39.14-.02.28.13.3.33.03.19-.07.37-.21.38-.14.02-.28-.13-.3-.32zM173.78 219.24l.4.57 1.34-.42.14-.18-.15-.2-1.33-.39-.4.62"/><path d="M175.66 217.15l-.86.52.64 1.38.22.14.22-.14.64-1.38-.86-.52"/><path d="M177.55 219.24l-.39.57-1.34-.42-.14-.18.14-.2 1.34-.39.39.62"/><ellipse cx="175.67" cy="219.21" rx=".49" ry=".47"/><path d="M178.5 219.95c.02-.2-.08-.37-.22-.39-.14-.02-.28.13-.3.33-.02.19.07.37.21.38.14.02.28-.13.31-.32zM178.99 219.3l.26.63 1.4-.13.18-.16-.1-.22-1.22-.64-.52.52"/><path d="M181.27 217.76l.67.64-.86 1.14-.23.09-.17-.18-.3-1.37.89-.32"/><path d="M182.68 220.04l-.51.48-1.22-.66-.1-.21.19-.17 1.4-.12.24.68"/><ellipse cx="180.85" cy="219.65" rx=".49" ry=".47"/><path d="M183.34 220.88c.06-.18 0-.37-.13-.42-.14-.03-.3.09-.37.27-.06.19 0 .38.14.42.13.04.29-.08.36-.27zM185.73 221c.01.01.38-.48.66-.73.19-.18.67-.33.67-.33 0-.08-.28-.28-.58-.28-.18 0-.35.07-.45.2l-.04-.2s-.24.05-.36.32c-.11.29-.03.72-.03.72s.04.2.13.3zM183.84 220.22l.11.66 1.4.15.21-.12-.05-.23-1.05-.87-.62.41"/><path d="M185.74 220.75c-.11-.12-.35-.09-.53.06-.18.15-.24.38-.12.5.12.13.36.1.54-.06.18-.15.23-.38.11-.5z"/></g><g id="b" fill="none"><path fill="#ad1519" d="M168.05 224.3l.31-.5.65.13-.38.56-.58-.19"/><path fill="#058e6e" d="M170.85 223.81l-.69.11c-.18.02-.35-.09-.38-.26a.32.32 0 01.27-.35l.7-.1.71-.11c.18-.02.34.09.37.25.02.17-.1.33-.27.35l-.71.11"/><ellipse cx="173.19" cy="223.3" fill="#fff" rx=".44" ry=".41"/><path fill="#ad1519" d="M175.7 223.48h-.96c-.18 0-.33-.14-.33-.31 0-.17.14-.31.32-.31h1.96c.19 0 .33.14.33.31 0 .17-.15.31-.33.31h-.99"/><ellipse cx="178.16" cy="223.3" fill="#fff" rx=".44" ry=".41"/><path fill="#058e6e" d="M180.5 223.81l.69.11c.18.02.35-.09.38-.26a.313.313 0 00-.27-.35l-.7-.1-.71-.11c-.18-.02-.35.09-.37.25a.3.3 0 00.27.35l.71.11"/><path fill="#ad1519" d="M183.24 224.33l-.25-.53-.67.06.32.59.6-.12"/><path fill="#ad1519" stroke-linejoin="round" d="M175.66 226.16c-2.43 0-4.63-.22-6.3-.65 1.67-.43 3.87-.69 6.3-.7 2.44 0 4.65.27 6.33.7-1.68.43-3.89.65-6.33.65z"/><path stroke-width=".01" d="M176.8 226.08v-1.16m-.58 1.2l.01-1.23m-.43 1.25v-1.26"/><path stroke-width=".02" d="M175.44 226.15v-1.27"/><path stroke-width=".03" d="M175.09 226.15v-1.27"/><path stroke-width=".04" d="M174.77 226.15v-1.27M174.44 226.15v-1.27"/><path stroke-width=".05" d="M174.16 226.15v-1.27"/><path stroke-width=".06" d="M173.61 226.08l-.01-1.15m.27 1.17v-1.21"/><path stroke-width=".07" d="M173.1 226.03v-1.06m.26 1.09l-.01-1.13"/><path stroke-width=".08" d="M172.42 225.97v-.93m.23.94V225m.23 1.02V225"/><path stroke-width=".09" d="M172.19 225.96v-.9"/><path stroke-width=".1" d="M171.97 225.92v-.85"/><path stroke-width=".11" d="M171.73 225.89v-.78"/><path stroke-width=".12" d="M171.24 225.82l-.01-.62m.26.66v-.7M170.99 225.77v-.55"/><path stroke-width=".13" d="M170.76 225.73v-.46"/><path stroke-width=".14" d="M170.51 225.67v-.36"/><path stroke-width=".15" d="M170.26 225.64v-.27"/><path stroke-width=".18" d="M169.99 225.58v-.13"/></g></g><g id="c"><g fill="#005bbf"><path d="M191.28 330.68c-1.54 0-2.91-.33-3.93-.87-1-.51-2.36-.82-3.86-.82-1.51 0-2.9.32-3.91.83-1.01.53-2.4.86-3.92.86-1.54 0-2.92-.36-3.93-.9-1-.49-2.33-.79-3.79-.79-1.52 0-2.86.29-3.86.81-1.02.54-2.42.88-3.95.88v2.41c1.53 0 2.93-.35 3.95-.88 1-.52 2.34-.82 3.86-.82 1.45 0 2.79.31 3.79.8 1.01.53 2.39.9 3.93.9 1.52 0 2.91-.33 3.92-.86 1.01-.52 2.4-.84 3.91-.84 1.5 0 2.86.32 3.86.83 1.02.54 2.37.87 3.91.87z"/><path fill="#ccc" d="M191.28 333.09c-1.54 0-2.91-.33-3.93-.87-1-.51-2.36-.83-3.86-.83-1.51 0-2.9.32-3.91.84-1.01.53-2.4.86-3.92.86-1.54 0-2.92-.37-3.93-.9-1-.49-2.33-.8-3.79-.8-1.52 0-2.86.3-3.86.82-1.02.53-2.42.88-3.95.88v2.41c1.53 0 2.93-.35 3.95-.88 1-.52 2.34-.82 3.86-.82 1.45 0 2.79.31 3.79.8 1.01.54 2.39.9 3.93.9 1.52 0 2.91-.34 3.92-.86 1.01-.52 2.4-.84 3.91-.84 1.5 0 2.86.32 3.86.84 1.02.53 2.37.86 3.91.86l.02-2.41"/><path d="M191.28 335.5c-1.54 0-2.91-.33-3.93-.86-1-.52-2.36-.84-3.86-.84-1.51 0-2.9.32-3.91.84-1.01.52-2.4.86-3.92.86-1.54 0-2.92-.36-3.93-.9-1-.49-2.33-.8-3.79-.8-1.52 0-2.86.3-3.86.82-1.02.53-2.42.88-3.95.88v2.4c1.53 0 2.93-.34 3.95-.88 1-.51 2.34-.8 3.86-.8 1.45 0 2.79.3 3.79.79 1.01.54 2.39.89 3.93.89 1.52 0 2.91-.32 3.92-.85 1.01-.52 2.4-.83 3.91-.83 1.5 0 2.86.31 3.86.82 1.02.55 2.37.86 3.91.86l.02-2.4"/><path fill="#ccc" d="M191.26 340.32c-1.54 0-2.89-.33-3.91-.87-1-.51-2.36-.82-3.86-.82-1.51 0-2.9.31-3.91.83-1.01.52-2.4.86-3.92.86-1.54 0-2.92-.37-3.93-.9-1-.5-2.33-.79-3.79-.79-1.52 0-2.86.29-3.86.81-1.02.53-2.42.88-3.95.88v-2.4c1.53 0 2.93-.36 3.95-.9 1-.51 2.34-.8 3.86-.8 1.45 0 2.79.3 3.79.79 1.01.54 2.39.89 3.93.89 1.52 0 2.91-.32 3.92-.85 1.01-.52 2.4-.83 3.91-.83 1.5 0 2.86.31 3.86.82 1.02.55 2.39.86 3.93.86l-.02 2.42"/><path d="M191.26 342.73c-1.54 0-2.89-.33-3.91-.86-1-.52-2.36-.84-3.86-.84-1.51 0-2.9.32-3.91.84-1.01.52-2.4.86-3.92.86-1.54 0-2.92-.37-3.93-.9-1-.5-2.33-.8-3.79-.8-1.52 0-2.86.3-3.86.82-1.02.53-2.42.88-3.95.88v-2.39c1.53 0 2.93-.37 3.95-.9 1-.52 2.34-.81 3.86-.81 1.45 0 2.79.3 3.79.79 1.01.53 2.39.9 3.93.9 1.52 0 2.91-.34 3.92-.86 1.01-.52 2.4-.83 3.91-.83 1.5 0 2.86.31 3.86.82 1.02.54 2.38.87 3.93.87z"/></g><g fill="#c8b100"><path stroke-linejoin="round" d="M166.92 320.78c.05.21.13.4.13.62 0 1.46-1.27 2.63-2.81 2.63h22.94c-1.55 0-2.81-1.17-2.81-2.63 0-.21.04-.41.09-.62-.13.05-.29.06-.44.06h-16.69c-.13 0-.29-.02-.41-.06z"/><path d="M167.33 319.27h16.69c.57 0 1.02.35 1.02.78 0 .43-.45.79-1.02.79h-16.69c-.56 0-1.02-.36-1.02-.79 0-.43.46-.78 1.02-.78zM164.27 329.86h22.87v-5.83h-22.87z"/></g><path fill="#ccc" d="M167.55 318.32h16.25v-79.63h-16.25z"/><path fill="none" d="M179.13 238.8v79.46m1.83-79.46v79.46"/><g fill="#c8b100"><path d="M164.58 232.37h22.29v-5.84h-22.29z"/><path stroke-linejoin="round" d="M166.92 236.26a.91.91 0 01.41-.07h16.69c.17 0 .32.03.46.08-.58-.19-.99-.71-.99-1.32 0-.61.45-1.14 1.03-1.33-.14.04-.33.08-.49.08h-16.7c-.17 0-.33-.01-.47-.06l.09.02c.6.18.94.71.94 1.29 0 .56-.38 1.13-.97 1.31z"/><path d="M167.33 236.19h16.69c.57 0 1.02.35 1.02.78 0 .44-.45.79-1.02.79h-16.69c-.56 0-1.02-.35-1.02-.79 0-.43.46-.78 1.02-.78zM167.33 232.37h16.7c.57 0 1.03.3 1.03.66 0 .37-.46.67-1.03.67h-16.7c-.56 0-1.02-.3-1.02-.67 0-.36.46-.66 1.02-.66z"/></g></g><g id="d" fill="#ad1519"><path d="M162.48 298.62c-2.26 1.3-3.8 2.64-3.55 3.31.12.61.84 1.07 1.87 1.75 1.62 1.13 2.6 3.14 1.83 4.07 1.34-1.08 2.19-2.69 2.19-4.49 0-1.87-.9-3.56-2.34-4.64z"/><path stroke-linejoin="round" d="M200.4 268.47c-3.54-1.46-9.57-2.55-16.49-2.78-2.39.02-5.04.25-7.79.7-9.72 1.63-17.13 5.51-16.54 8.67.01.06.04.2.05.26 0 0-3.64-8.21-3.7-8.52-.65-3.51 7.56-7.82 18.35-9.62 3.39-.57 6.69-.79 9.56-.76 6.9 0 12.9.89 16.52 2.23l.04 9.82"/><path d="M167.52 278.47c-4.51-.32-7.58-1.53-7.94-3.41-.28-1.5 1.25-3.17 3.97-4.68 1.21.14 2.58.3 4 .3l-.03 7.79M183.83 272.38c2.82.43 4.93 1.13 5.98 1.99l.1.17c.5 1.03-1.97 3.22-6.11 5.67l.03-7.83"/><path stroke-linejoin="round" d="M157.42 293.83c-.43-1.28 3.97-3.86 10.18-6.14 2.84-1.01 5.18-2.07 8.09-3.35 8.63-3.82 15-8.2 14.22-9.79l-.09-.17c.46.38 1.18 8.24 1.18 8.24.78 1.46-5.05 5.78-13 9.58-2.54 1.22-7.91 3.2-10.44 4.09-4.54 1.57-9.04 4.54-8.63 5.64l-1.51-8.09z"/></g><g stroke-width=".26"><path fill="#ad1519" stroke-width=".27" d="M324.85 220.42s-.74.78-1.28.89c-.53.1-1.21-.49-1.21-.49s-.48.51-1.08.64c-.59.14-1.41-.66-1.41-.66s-.57.8-1.07.99c-.51.18-1.13-.24-1.13-.24s-.23.39-.65.61c-.18.09-.48-.05-.48-.05l-.6-.38-.68-.72-.62-.24s-.28-.91-.31-1.07c-.02-.16-.08-.57-.08-.57-.13-.65.87-1.4 2.3-1.72.82-.19 1.54-.18 2.06-.02.57-.48 1.78-.82 3.2-.82 1.29 0 2.42.27 3.04.7.61-.43 1.74-.7 3.03-.7 1.42 0 2.62.34 3.19.82.53-.16 1.24-.17 2.07.02 1.42.32 2.43 1.07 2.3 1.72 0 0-.06.41-.08.57-.03.16-.32 1.07-.32 1.07l-.62.24-.68.72-.58.38s-.3.14-.48.05c-.43-.21-.66-.61-.66-.61s-.62.42-1.13.24c-.51-.19-1.07-.99-1.07-.99s-.82.8-1.42.66c-.59-.13-1.07-.64-1.07-.64s-.68.59-1.21.49c-.54-.11-1.27-.89-1.27-.89z"/><g fill="#c8b100"><ellipse cx="324.82" cy="216.2" rx="1.38" ry="1.96"/><ellipse cx="324.85" cy="216.2" rx=".63" ry="1.81"/><ellipse cx="324.84" cy="213.95" stroke="none" rx=".93" ry=".88"/><path stroke-width=".3" d="M326.13 213.64v.58h-2.53v-.58h.94v-1.3h-.62v-.58h.62v-.58h.61v.58h.61v.58h-.61v1.3h.98"/><path fill="none" d="M325.11 213.12a.93.88 0 11-.51-.01"/></g><g fill="none" stroke-width=".21"><path stroke-linecap="round" stroke-width=".26" d="M314.41 219.99c-.13-.33-.22-.7-.22-1.08 0-1.59 1.26-2.88 2.83-2.88.5 0 .96.13 1.37.37"/><path stroke-width=".26" d="M319.48 217.93c-.15-.26-.29-.54-.29-.84 0-1.15 1.19-2.08 2.64-2.08.62 0 1.2.17 1.65.45M330.17 217.96c.15-.26.25-.57.25-.87 0-1.15-1.18-2.08-2.64-2.08-.62 0-1.19.17-1.64.45"/><path stroke-linecap="round" stroke-width=".26" d="M335.21 219.99c.13-.33.21-.7.21-1.08 0-1.59-1.26-2.88-2.82-2.88-.5 0-.97.13-1.38.37"/><ellipse cx="313.57" cy="218.68" rx=".45" ry=".43"/><ellipse cx="313.74" cy="217.1" rx=".45" ry=".43"/><ellipse cx="314.76" cy="215.9" rx=".45" ry=".43"/><ellipse cx="316.11" cy="215.25" rx=".45" ry=".43"/><ellipse cx="317.55" cy="215.31" rx=".45" ry=".43"/><ellipse cx="318.43" cy="217.08" fill="#fff" rx=".45" ry=".43"/><ellipse cx="318.68" cy="215.58" rx=".45" ry=".43"/><ellipse cx="319.81" cy="214.64" rx=".45" ry=".43"/><ellipse cx="321.23" cy="214.19" rx=".45" ry=".43"/><ellipse cx="322.67" cy="214.24" rx=".45" ry=".43"/><ellipse cx="326.94" cy="214.24" rx=".45" ry=".43"/><ellipse cx="328.39" cy="214.19" rx=".45" ry=".43"/><ellipse cx="329.8" cy="214.64" rx=".45" ry=".43"/><ellipse cx="330.93" cy="215.58" rx=".45" ry=".43"/><ellipse cx="331.18" cy="217.08" fill="#fff" rx=".45" ry=".43"/><ellipse cx="332.06" cy="215.31" rx=".45" ry=".43"/><ellipse cx="333.51" cy="215.25" rx=".45" ry=".43"/><ellipse cx="334.86" cy="215.9" rx=".45" ry=".43"/><ellipse cx="335.88" cy="217.1" rx=".45" ry=".43"/><ellipse cx="336.05" cy="218.68" rx=".45" ry=".43"/></g><use width="100%" height="100%" x="149.17" xlink:href="#a"/><use width="100%" height="100%" x="149.17" xlink:href="#b"/></g><use width="100%" height="100%" x="149.17" xlink:href="#c"/><use width="100%" height="100%" transform="matrix(-1 0 0 1 500.57 0)" xlink:href="#d"/><g fill="#c8b100" stroke="none"><path d="M166.42 264.65c1.99-.72 3.29-1.58 2.66-3.14-.41-1-1.43-1.19-2.97-.63l-2.71.99 2.44 6.03c.27-.12.54-.24.81-.34.28-.1.57-.18.85-.26l-1.08-2.64zm-1.18-2.91l.69-.25c.57-.21 1.21.1 1.5.8.21.53.16 1.13-.5 1.55-.21.13-.46.23-.7.33l-.99-2.43M172.78 259.22c-.29.08-.57.16-.86.22-.29.05-.59.09-.88.12l1.41 6.28 4.38-.88c-.05-.12-.12-.26-.14-.38-.03-.14-.03-.28-.04-.41-.77.22-1.61.46-2.61.66l-1.26-5.61M181.56 264.63c.82-2.28 1.82-4.46 2.81-6.67-.18.03-.36.06-.54.07-.18.01-.37.01-.54 0-.53 1.61-1.18 3.21-1.87 4.8-.82-1.51-1.73-2.99-2.43-4.51-.34.04-.69.09-1.03.12-.34.02-.7.01-1.04.02 1.26 2.06 2.48 4.11 3.64 6.23.16-.03.32-.06.5-.08.16-.01.33.01.5.02M190.72 259.8c.15-.31.31-.6.48-.89-.24-.22-.96-.55-1.81-.63-1.79-.18-2.81.61-2.93 1.69-.26 2.26 3.31 2.07 3.14 3.57-.07.64-.75.9-1.48.83-.81-.08-1.41-.53-1.51-1.19l-.22-.02c-.12.39-.29.77-.48 1.15.53.34 1.21.53 1.85.59 1.83.19 3.22-.54 3.35-1.74.23-2.15-3.37-2.27-3.23-3.54.06-.53.47-.88 1.4-.79.67.07 1.08.43 1.26.95l.18.02M310.3 264.98c.62-2.33 1.41-4.58 2.19-6.87-.17.05-.35.09-.53.11-.17.03-.36.04-.54.05-.37 1.64-.88 3.29-1.42 4.94-.96-1.44-2-2.84-2.83-4.3-.34.07-.68.15-1.02.2-.34.05-.69.07-1.04.11 1.45 1.94 2.85 3.89 4.2 5.91.16-.04.32-.1.5-.12.16-.02.33-.02.49-.03M316.48 258.16c-.29.01-.59.04-.88.03-.3 0-.6-.04-.89-.06l-.12 6.41 4.49.08c-.03-.13-.06-.28-.06-.41 0-.13.04-.27.07-.4-.81.05-1.68.1-2.71.08l.1-5.73M323.52 259.21c.72.06 1.41.19 2.1.31-.01-.13-.03-.27-.02-.41.01-.13.06-.26.1-.39l-6.07-.5c.01.14.03.27.02.4-.01.14-.06.27-.1.4.62-.02 1.37-.02 2.21.05l-.53 5.77c.29 0 .59 0 .88.03.3.02.59.07.88.11l.53-5.77M326.01 265.53c.29.05.59.09.88.15.28.06.57.15.85.23l.72-2.94.08.01c.16.41.38.9.49 1.19l.9 2.22c.36.06.71.11 1.05.18.36.08.7.18 1.04.28l-.31-.67c-.48-1-.99-2.01-1.41-3.02 1.12.04 1.98-.36 2.2-1.26.15-.62-.1-1.11-.68-1.53-.44-.31-1.28-.47-1.83-.6l-2.44-.53-1.54 6.29m3.14-5.42c.71.16 1.59.27 1.59 1.07-.01.21-.03.35-.06.48-.23.94-.94 1.26-2.13.91l.6-2.46M337.57 267.46c-.05.69-.18 1.37-.31 2.1.3.14.61.27.9.44.3.16.57.34.86.52l.6-7.23c-.14-.06-.27-.12-.41-.19-.13-.07-.25-.15-.37-.24l-6.38 4.05c.17.08.35.16.51.25.17.09.31.19.47.28.54-.45 1.1-.82 1.74-1.3l2.39 1.31zm-1.81-1.66l2.13-1.37-.25 2.4-1.88-1.03"/></g></g><path fill="#ad1519" stroke-width=".156" d="M149.79 109.632c3.984 0 7.536.594 9.846 1.506 1.32.6 3.096 1.038 5.04 1.302 1.482.198 2.886.234 4.11.144 1.638-.036 4.002.444 6.372 1.488 1.956.87 3.594 1.926 4.68 2.946l-.942.84-.27 2.376-2.58 2.952-1.29 1.098-3.054 2.442-1.56.126-.474 1.35-19.746-2.316-19.812 2.316-.474-1.35-1.566-.126-3.048-2.442-1.29-1.098-2.58-2.952-.264-2.376-.948-.84c1.092-1.02 2.724-2.076 4.68-2.946 2.37-1.044 4.734-1.524 6.372-1.488 1.224.09 2.628.054 4.11-.144 1.944-.264 3.72-.702 5.04-1.302 2.316-.912 5.664-1.506 9.648-1.506z"/><g fill="#c8b100" transform="scale(.6)"><path d="M225.34 191.42l1.38 1.11 2.08-3.4c-2.25-1.38-3.8-3.78-3.8-6.51 0-.31.02-.61.06-.91.21-4.34 5.5-7.92 12.2-7.92 3.48 0 6.63.95 8.84 2.48.06-.67.12-1.25.21-1.86-2.43-1.42-5.6-2.28-9.05-2.28-7.71 0-13.74 4.39-14.03 9.57-.03.31-.05.61-.05.92 0 2.76 1.26 5.26 3.26 6.99l-1.1 1.81"/><path d="M225.43 191.46c-2.63-1.97-4.27-4.64-4.27-7.58 0-3.38 2.22-6.4 5.58-8.41-2.07 1.67-3.33 3.83-3.51 6.23-.03.31-.05.61-.05.92 0 2.76 1.26 5.26 3.26 6.99l-1.01 1.85"/><path d="M202.21 194.89c-1.48-1.65-2.38-3.79-2.38-6.12 0-1.41.33-2.75.91-3.95 2.13-4.38 8.82-7.57 16.76-7.57 2.16 0 4.23.23 6.14.67-.42.46-.75.97-1.08 1.48-1.59-.31-3.29-.48-5.06-.48-7.27 0-13.36 2.83-15.12 6.65a7.33 7.33 0 00-.73 3.2c0 2.32 1.09 4.4 2.79 5.82l-2.63 4.3-1.41-1.12z"/><path d="M204.9 180.48c-1.91 1.21-3.36 2.69-4.16 4.34-.58 1.2-.91 2.54-.91 3.95 0 2.33.9 4.47 2.38 6.12l-1.6 2.59c-1.53-1.96-2.42-4.26-2.42-6.7 0-4.2 2.67-7.87 6.71-10.3zM250.04 171.27c1.76 0 3.28 1.16 3.64 2.73.23 1.38.38 2.95.41 4.62.01.18-.01.35-.01.52 0 .2.04.41.05.61.06 3.52.56 6.62 1.27 8.52l-5.36 5.14-5.43-5.14c.72-1.9 1.22-5 1.29-8.52 0-.2.04-.41.04-.61 0-.17-.01-.34-.01-.52.03-1.67.18-3.24.41-4.62.36-1.57 1.94-2.73 3.7-2.73z"/><path d="M250.04 172.94c.91 0 1.68.58 1.87 1.39.23 1.31.37 2.8.4 4.38 0 .16-.01.32-.01.48 0 .2.03.39.04.59.05 3.32.53 6.25 1.21 8.05l-3.54 3.35-3.54-3.35c.67-1.8 1.15-4.73 1.21-8.05 0-.2.04-.39.04-.59 0-.16-.01-.32-.01-.48.03-1.58.17-3.07.4-4.38.18-.81 1.02-1.39 1.93-1.39zM274.7 191.42l-1.39 1.11-2.08-3.4c2.26-1.38 3.81-3.78 3.81-6.51 0-.31-.02-.61-.06-.91-.21-4.34-5.5-7.92-12.2-7.92-3.49 0-6.63.95-8.84 2.48-.06-.67-.12-1.25-.22-1.86 2.44-1.42 5.6-2.28 9.06-2.28 7.71 0 13.74 4.39 14.03 9.57.03.31.05.61.05.92 0 2.76-1.27 5.26-3.27 6.99l1.11 1.81"/><path d="M274.61 191.46c2.63-1.97 4.27-4.64 4.27-7.58 0-3.38-2.22-6.4-5.58-8.41 2.07 1.67 3.33 3.83 3.51 6.23.03.31.05.61.05.92 0 2.76-1.27 5.26-3.27 6.99l1.02 1.85"/><path d="M297.83 194.89c1.47-1.65 2.38-3.79 2.38-6.12 0-1.41-.33-2.75-.91-3.95-2.14-4.38-8.82-7.57-16.76-7.57-2.16 0-4.23.23-6.15.67.43.46.76.97 1.09 1.48 1.58-.31 3.29-.48 5.06-.48 7.27 0 13.35 2.83 15.11 6.65.47.97.73 2.06.73 3.2 0 2.32-1.09 4.4-2.79 5.82l2.63 4.3 1.42-1.12z"/><path d="M295.14 180.48c1.91 1.21 3.36 2.69 4.16 4.34.58 1.2.91 2.54.91 3.95 0 2.33-.91 4.47-2.38 6.12l1.6 2.59c1.53-1.96 2.41-4.26 2.41-6.7 0-4.2-2.67-7.87-6.7-10.3z"/><ellipse cx="250.05" cy="167.3" fill="#005bbf" stroke-width=".26" rx="4.43" ry="4.2"/><path stroke-width=".26" d="M248.89 155.54v2.26h-2.42v2.3h2.42V166.71h-3.05c-.03.21-.22.37-.22.59 0 .58.12 1.14.35 1.64 0 .02.02.02.03.03h8.12c0-.01.02-.01.03-.03.22-.5.35-1.06.35-1.64 0-.22-.19-.38-.22-.59h-2.96v-6.61h2.42v-2.3h-2.42v-2.26z"/></g><g fill="#fff" transform="scale(.6)"><ellipse cx="250.04" cy="188.94" rx="1.91" ry="1.8"/><ellipse cx="250.04" cy="185.4" rx="1.91" ry="1.8"/><ellipse cx="250.04" cy="181.6" rx="1.52" ry="1.44"/><ellipse cx="250.04" cy="178.18" rx="1.1" ry="1.04"/><ellipse cx="250.04" cy="175.18" rx=".88" ry=".83"/><ellipse cx="198.94" cy="198.67" rx="1.1" ry="1.04"/><ellipse cx="197.44" cy="196.02" rx="1.1" ry="1.04"/><ellipse cx="196.44" cy="192.94" rx="1.1" ry="1.04"/><ellipse cx="196.31" cy="189.64" rx="1.1" ry="1.04"/><ellipse cx="197.12" cy="186.4" rx="1.1" ry="1.04"/><ellipse cx="198.81" cy="183.45" rx="1.1" ry="1.04"/><ellipse cx="201.06" cy="181.02" rx="1.1" ry="1.04"/><ellipse cx="203.68" cy="179.01" rx="1.1" ry="1.04"/><ellipse cx="206.8" cy="177.36" rx="1.1" ry="1.04"/><ellipse cx="210.04" cy="176.19" rx="1.1" ry="1.04"/><ellipse cx="213.66" cy="175.54" rx="1.1" ry="1.04"/><ellipse cx="217.1" cy="175.36" rx="1.1" ry="1.04"/><ellipse cx="220.47" cy="175.48" rx="1.1" ry="1.04"/><ellipse cx="224.21" cy="190.32" rx="1.1" ry="1.04"/><ellipse cx="222.34" cy="187.65" rx="1.1" ry="1.04"/><ellipse cx="221.35" cy="184.75" rx="1.1" ry="1.04"/><ellipse cx="221.47" cy="181.57" rx="1.1" ry="1.04"/><ellipse cx="222.16" cy="178.37" rx="1.1" ry="1.04"/><ellipse cx="223.84" cy="175.48" rx="1.1" ry="1.04"/><ellipse cx="226.4" cy="173.47" rx="1.1" ry="1.04"/><ellipse cx="229.39" cy="171.81" rx="1.1" ry="1.04"/><ellipse cx="232.7" cy="170.82" rx="1.1" ry="1.04"/><ellipse cx="236.13" cy="170.23" rx="1.1" ry="1.04"/><ellipse cx="239.5" cy="170.28" rx="1.1" ry="1.04"/><ellipse cx="242.99" cy="170.87" rx="1.1" ry="1.04"/><ellipse cx="246.23" cy="171.99" rx="1.1" ry="1.04"/><ellipse cx="253.8" cy="171.99" rx="1.1" ry="1.04"/><ellipse cx="257.04" cy="170.87" rx="1.1" ry="1.04"/><ellipse cx="260.54" cy="170.28" rx="1.1" ry="1.04"/><ellipse cx="263.9" cy="170.23" rx="1.1" ry="1.04"/><ellipse cx="267.34" cy="170.82" rx="1.1" ry="1.04"/><ellipse cx="270.64" cy="171.81" rx="1.1" ry="1.04"/><ellipse cx="273.64" cy="173.47" rx="1.1" ry="1.04"/><ellipse cx="276.19" cy="175.48" rx="1.1" ry="1.04"/><ellipse cx="277.88" cy="178.37" rx="1.1" ry="1.04"/><ellipse cx="278.57" cy="181.57" rx="1.1" ry="1.04"/><ellipse cx="278.69" cy="184.75" rx="1.1" ry="1.04"/><ellipse cx="277.69" cy="187.65" rx="1.1" ry="1.04"/><ellipse cx="275.83" cy="190.32" rx="1.1" ry="1.04"/><ellipse cx="279.57" cy="175.48" rx="1.1" ry="1.04"/><ellipse cx="282.94" cy="175.36" rx="1.1" ry="1.04"/><ellipse cx="286.38" cy="175.54" rx="1.1" ry="1.04"/><ellipse cx="290" cy="176.19" rx="1.1" ry="1.04"/><ellipse cx="293.24" cy="177.36" rx="1.1" ry="1.04"/><ellipse cx="296.36" cy="179.01" rx="1.1" ry="1.04"/><ellipse cx="298.97" cy="181.02" rx="1.1" ry="1.04"/><ellipse cx="301.22" cy="183.45" rx="1.1" ry="1.04"/><ellipse cx="302.91" cy="186.4" rx="1.1" ry="1.04"/><ellipse cx="303.72" cy="189.64" rx="1.1" ry="1.04"/><ellipse cx="303.6" cy="192.94" rx="1.1" ry="1.04"/><ellipse cx="302.6" cy="196.02" rx="1.1" ry="1.04"/><ellipse cx="301.1" cy="198.67" rx="1.1" ry="1.04"/></g><g fill="#c8b100" transform="scale(.6)"><path d="M250.15 226.18c-12.26-.02-23.25-1.47-31.09-3.83-.57-.18-.87-.7-.84-1.25-.01-.52.29-1 .84-1.17 7.84-2.36 18.83-3.81 31.09-3.83 12.27.02 23.25 1.47 31.09 3.83.55.17.84.65.83 1.17.03.55-.27 1.07-.83 1.25-7.84 2.36-18.82 3.81-31.09 3.83"/><path d="M250.07 216.09c-12.41.03-23.55 1.58-31.39 4 .65-.31.59-1.12-.22-3.2-.98-2.53-2.5-2.42-2.5-2.42 8.66-2.56 20.73-4.16 34.16-4.18 13.44.02 25.6 1.62 34.27 4.18 0 0-1.53-.11-2.51 2.42-.81 2.08-.87 2.89-.21 3.2-7.84-2.42-19.19-3.97-31.6-4"/><path d="M250.12 210.3c-13.43.02-25.5 1.62-34.16 4.18-.58.17-1.19-.05-1.38-.6-.19-.55.12-1.18.7-1.35 8.71-2.67 21.08-4.35 34.84-4.38 13.77.03 26.19 1.71 34.9 4.38.58.17.89.8.7 1.35-.19.55-.8.77-1.38.6-8.67-2.56-20.78-4.16-34.22-4.18"/><path d="M250.2 199.78l1.23.22c-.19.5-.24 1.05-.24 1.63 0 2.57 2.21 4.65 4.92 4.65 2.18 0 4.04-1.35 4.67-3.21.08.05.47-1.68.68-1.66.17.02.15 1.8.22 1.77.31 2.34 2.46 3.93 4.87 3.93 2.71 0 4.91-2.08 4.91-4.65 0-.19-.01-.38-.04-.57l1.54-1.52.83 1.94c-.33.61-.46 1.3-.46 2.03 0 2.46 2.1 4.44 4.69 4.44 1.63 0 3.06-.78 3.9-1.97l.99-1.25-.01 1.53c0 1.55.66 2.93 2.16 3.18 0 0 1.73.1 4.03-1.7 2.29-1.8 3.55-3.29 3.55-3.29l.2 1.8s-1.9 2.95-3.97 4.15c-1.14.66-2.86 1.35-4.23 1.13-1.44-.24-2.48-1.4-3.01-2.74-1.03.61-2.25.97-3.55.97-2.81 0-5.33-1.54-6.32-3.86-1.29 1.4-3.09 2.25-5.2 2.25-2.24 0-4.29-1.01-5.57-2.56a7.198 7.198 0 01-4.88 1.87c-2.48 0-4.69-1.22-5.94-3.05-1.25 1.83-3.46 3.05-5.94 3.05-1.89 0-3.61-.71-4.87-1.87-1.28 1.55-3.34 2.56-5.58 2.56-2.11 0-3.9-.85-5.19-2.25-1 2.32-3.52 3.86-6.32 3.86-1.31 0-2.52-.36-3.55-.97-.54 1.34-1.57 2.5-3.02 2.74-1.36.22-3.08-.47-4.22-1.13-2.08-1.2-3.98-4.15-3.98-4.15l.2-1.8s1.27 1.49 3.56 3.29c2.29 1.81 4.02 1.7 4.02 1.7 1.51-.25 2.16-1.63 2.16-3.18l-.01-1.53.99 1.25c.84 1.19 2.28 1.97 3.9 1.97 2.59 0 4.69-1.98 4.69-4.44 0-.73-.13-1.42-.46-2.03l.83-1.94 1.54 1.52c-.02.19-.04.38-.04.57 0 2.57 2.2 4.65 4.91 4.65 2.42 0 4.56-1.59 4.88-3.93.06.03.05-1.75.22-1.77.2-.02.6 1.71.67 1.66.64 1.86 2.49 3.21 4.68 3.21 2.71 0 4.91-2.08 4.91-4.65 0-.58-.03-1.13-.24-1.63l1.29-.22"/><path d="M208.37 206.32a2.24 2.24 0 00-.72-1.06c-.79-.68-1.84-.79-2.36-.25-.07.07-.13.17-.17.25 0 0-1.11-2.08-2.41-2.78-1.29-.7-3.49-.52-3.49-.52 0-1.6 1.3-2.89 2.99-2.89.99 0 1.92.41 2.48 1.11l.23-1.07s1.36.27 1.98 1.82c.62 1.55-.06 3.8-.06 3.8s.34-.96.85-1.61c.51-.64 1.81-1.34 2.49-1.66.67-.31 1.37-.79 1.37-.79s.03.18.05.61c.03.51-.01.83-.01.83 1.24-.17 2.69.04 3.83.48-.49.95-1.41 1.84-2.62 2.3 0 0 .44.36.83.75.34.34.44.49.44.49s-.85.13-1.27.19c-.43.05-1.84.28-2.69.22-.62-.04-1.32-.14-1.74-.22"/><path fill="#ad1519" d="M205.29 205.01c.52-.54 1.57-.43 2.36.25.8.67 1.02 1.66.51 2.19-.51.54-1.57.42-2.36-.25-.79-.68-1.02-1.66-.51-2.19"/><path fill="#fff" d="M216.39 205.91c-.28-.83-.03-1.65.57-1.83.6-.19 1.32.33 1.6 1.16.28.83.03 1.65-.57 1.84-.6.18-1.31-.34-1.6-1.17"/><path d="M226.12 201.86c-.33-.27-.59-.64-.67-1.08-.08-.44.01-.87.23-1.23 0 0-.88-.44-1.83-.69-.72-.19-1.99-.2-2.37-.2-.38-.02-1.15-.03-1.15-.03s.07.17.28.55c.27.46.5.75.5.75-1.27.29-2.35 1.12-3.03 2.09.99.68 2.3 1.1 3.6.97 0 0-.12.34-.2.86-.06.43-.06.61-.06.61s.71-.26 1.07-.39c.35-.13 1.54-.55 2.15-.96.8-.54 1.48-1.25 1.48-1.25"/><path d="M225.68 191.65c1.06.67 1.98 1.79 2.3 3.03 0 0 .13-.25.71-.59.59-.33 1.09-.32 1.09-.32s-.17.97-.25 1.32c-.09.34-.09 1.38-.32 2.32-.23.93-.63 1.68-.63 1.68-.42-.34-.99-.51-1.58-.41-.58.1-1.06.44-1.32.9 0 0-.66-.58-1.21-1.38-.55-.81-.93-1.78-1.13-2.08-.21-.3-.72-1.15-.72-1.15s.47-.18 1.14-.05c.67.12.88.32.88.32-.14-1.28.28-2.62 1.04-3.59"/><path d="M228.97 201.38a1.727 1.727 0 00-.42-2.3s.67-.71 1.47-1.26c.6-.41 1.8-.82 2.15-.95a95 95 0 001.07-.4s0 .18-.06.61c-.08.52-.2.87-.2.87 1.3-.14 2.62.29 3.61.98-.69.97-1.77 1.79-3.04 2.08 0 0 .23.28.5.74.21.39.28.56.28.56l-1.15-.03c-.38 0-1.65-.01-2.37-.2-.95-.25-1.84-.69-1.84-.69"/><ellipse cx="227.37" cy="200.45" fill="#ad1519" rx="2.17" ry="2.06"/><path fill="#fff" d="M237.76 201.77c-.11-.87.31-1.63.93-1.7.63-.07 1.23.57 1.34 1.44.11.86-.3 1.63-.93 1.7-.62.07-1.22-.57-1.34-1.44"/><path d="M248.5 199.83c-.32-.36-.53-.82-.53-1.33 0-.5.19-.97.51-1.32 0 0-.89-.67-1.89-1.12-.77-.35-2.18-.59-2.6-.67l-1.28-.24s.04.2.2.67c.2.56.4.93.4.93-1.47.08-2.85.81-3.81 1.76.96.94 2.34 1.66 3.81 1.75 0 0-.2.36-.4.93-.16.46-.2.67-.2.67l1.28-.24c.42-.08 1.83-.32 2.6-.67 1-.46 1.91-1.11 1.91-1.11"/><path d="M250.11 188.36c1.05.95 1.85 2.36 1.95 3.82 0 0 .19-.27.91-.53.73-.26 1.28-.16 1.28-.16s-.39 1.05-.55 1.42c-.17.37-.39 1.53-.84 2.53-.44 1-1.05 1.76-1.05 1.76-.4-.45-1-.75-1.67-.75-.68 0-1.27.3-1.67.75 0 0-.61-.76-1.05-1.76-.45-1-.67-2.16-.84-2.53-.17-.37-.56-1.42-.56-1.42s.56-.1 1.28.16.92.53.92.53c.1-1.46.86-2.87 1.89-3.82"/><path d="M251.76 199.83c.33-.36.53-.82.53-1.33 0-.5-.19-.97-.51-1.32 0 0 .89-.67 1.9-1.12.76-.35 2.17-.59 2.6-.67l1.26-.24s-.02.2-.19.67c-.2.56-.4.93-.4.93 1.47.08 2.86.81 3.81 1.76-.95.94-2.33 1.66-3.81 1.75 0 0 .2.36.4.93.16.46.19.67.19.67l-1.26-.24c-.43-.08-1.84-.32-2.6-.67-1.01-.46-1.92-1.11-1.92-1.11"/><ellipse cx="250.14" cy="198.5" fill="#ad1519" rx="2.17" ry="2.06"/><path fill="#fff" d="M262.58 201.77c.11-.87-.3-1.63-.93-1.7-.63-.07-1.23.57-1.34 1.44-.11.86.31 1.63.93 1.7.63.07 1.23-.57 1.34-1.44"/><path d="M271.38 201.38c-.22-.35-.32-.79-.25-1.23.09-.44.33-.81.67-1.07 0 0-.67-.71-1.47-1.26-.61-.41-1.8-.82-2.16-.95-.35-.13-1.06-.4-1.06-.4s-.01.18.06.61c.08.52.19.87.19.87-1.29-.14-2.61.29-3.6.98.68.97 1.77 1.79 3.03 2.08 0 0-.23.28-.49.74-.22.39-.28.56-.28.56l1.14-.03c.38 0 1.66-.01 2.37-.2.95-.25 1.84-.69 1.84-.69"/><path d="M274.67 191.65c-1.06.67-1.98 1.79-2.31 3.03 0 0-.12-.25-.71-.59-.58-.33-1.09-.32-1.09-.32s.17.97.26 1.32c.09.34.09 1.38.31 2.32.23.93.64 1.68.64 1.68.42-.34.99-.51 1.57-.41.59.1 1.06.44 1.33.9 0 0 .66-.58 1.21-1.38.54-.81.92-1.78 1.12-2.08.21-.3.72-1.15.72-1.15s-.47-.18-1.14-.05c-.67.12-.88.32-.88.32.15-1.28-.28-2.62-1.03-3.59"/><path d="M274.22 201.86c.34-.27.6-.64.67-1.08.09-.44 0-.87-.22-1.23 0 0 .88-.44 1.83-.69.72-.19 1.99-.2 2.36-.2.39-.02 1.15-.03 1.15-.03s-.06.17-.28.55c-.26.46-.49.75-.49.75 1.26.29 2.34 1.12 3.03 2.09-.99.68-2.31 1.1-3.6.97 0 0 .11.34.19.86.06.43.06.61.06.61s-.71-.26-1.06-.39c-.36-.13-1.55-.55-2.16-.96-.79-.54-1.48-1.25-1.48-1.25"/><ellipse cx="272.98" cy="200.45" fill="#ad1519" rx="2.17" ry="2.06"/><path fill="#fff" d="M283.96 205.91c.28-.83.03-1.65-.57-1.83-.6-.19-1.32.33-1.61 1.16-.28.83-.03 1.65.57 1.84.6.18 1.32-.34 1.61-1.17"/><path d="M291.97 206.32c.11-.37.36-.75.72-1.06.79-.68 1.85-.79 2.36-.25.07.07.14.17.18.25 0 0 1.1-2.08 2.4-2.78 1.3-.7 3.5-.52 3.5-.52 0-1.6-1.31-2.89-3-2.89-.99 0-1.92.41-2.47 1.11l-.23-1.07s-1.36.27-1.98 1.82c-.62 1.55.05 3.8.05 3.8s-.33-.96-.84-1.61c-.51-.64-1.81-1.34-2.49-1.66-.68-.31-1.37-.79-1.37-.79s-.03.18-.06.61c-.02.51.02.83.02.83-1.25-.17-2.7.04-3.83.48.48.95 1.4 1.84 2.61 2.3 0 0-.43.36-.83.75-.33.34-.43.49-.43.49s.85.13 1.27.19c.43.05 1.84.28 2.68.22.63-.04 1.32-.14 1.74-.22"/><path fill="#ad1519" d="M295.05 205.01c-.51-.54-1.57-.43-2.36.25-.79.67-1.02 1.66-.51 2.19.51.54 1.57.42 2.36-.25.79-.68 1.02-1.66.51-2.19"/></g><g fill="none"><path fill="#ad1519" stroke-linejoin="round" stroke-width=".23399999999999999" d="M150.072 134.742c-6.636-.006-12.642-.774-17.208-1.956 4.566-1.182 10.572-1.902 17.208-1.914 6.642.012 12.678.732 17.244 1.914-4.566 1.182-10.602 1.95-17.244 1.956z"/><path stroke-width=".03" d="M154.824 134.568v-3.606m-1.812 3.726l.024-3.822m-1.344 3.87v-3.894"/><path stroke-width=".054" d="M150.57 134.784v-3.942"/><path stroke-width=".084" d="M149.496 134.784v-3.942"/><path stroke-width=".108" d="M148.488 134.784v-3.942"/><path stroke-width=".138" d="M147.486 134.784v-3.942"/><path stroke-width=".168" d="M146.592 134.784v-3.942"/><path stroke-width=".198" d="M144.888 134.568l-.024-3.582m.834 3.63v-3.75"/><path stroke-width=".222" d="M143.316 134.406v-3.3m.798 3.396l-.024-3.516"/><path stroke-width=".252" d="M141.21 134.22v-2.904m.69 2.952v-3.048m.714 3.144v-3.168"/><path stroke-width=".276" d="M140.472 134.196v-2.808"/><path stroke-width=".306" d="M139.782 134.052v-2.616"/><path stroke-width=".336" d="M139.044 133.986v-2.436"/><path stroke-width=".36" d="M137.532 133.77l-.024-1.932m.798 2.028v-2.172"/><path stroke-width=".378" d="M136.758 133.608v-1.704"/><path stroke-width=".40800000000000003" d="M136.044 133.47v-1.416"/><path stroke-width=".438" d="M135.27 133.278v-1.11"/><path stroke-width=".46199999999999997" d="M134.472 133.188v-.828"/><path stroke-width=".546" d="M133.632 132.996v-.402"/><path stroke-width=".23399999999999999" d="M132.072 132.996c4.65-1.308 10.974-2.112 18-2.124 7.032.012 13.386.816 18.036 2.124"/><path fill="#ad1519" stroke-width=".23399999999999999" d="M130.032 130.296l.732-.954 2.022.258-1.614 1.176-1.14-.48"/><path fill="#fff" stroke-width=".23399999999999999" d="M134.418 129.168c0-.348.294-.624.66-.624.366 0 .66.276.66.624 0 .342-.294.624-.66.624-.366 0-.66-.282-.66-.624"/><path fill="#058e6e" stroke-width=".23399999999999999" d="M140.184 129.042l-1.416.162c-.366.042-.702-.198-.744-.54-.048-.342.21-.654.576-.69l1.422-.168 1.452-.168c.36-.042.69.198.732.54.042.342-.216.654-.576.696l-1.446.168"/><path fill="#fff" stroke-width=".23399999999999999" d="M144.324 128.01c0-.348.294-.624.66-.624.36 0 .66.276.66.624 0 .342-.3.624-.66.624-.366 0-.66-.282-.66-.624"/><path fill="#ad1519" stroke-width=".23399999999999999" d="M150.09 128.496h-1.974c-.36 0-.666-.276-.666-.618 0-.348.294-.624.66-.624h3.984c.366 0 .66.276.66.624 0 .342-.306.618-.666.618h-1.998"/><path fill="#fff" stroke-width=".23399999999999999" d="M154.536 128.01c0-.348.3-.624.66-.624.366 0 .66.276.66.624 0 .342-.294.624-.66.624-.36 0-.66-.282-.66-.624"/><path fill="#058e6e" stroke-width=".23399999999999999" d="M159.996 129.042l1.416.162c.36.042.702-.198.744-.54a.628.628 0 00-.576-.69l-1.422-.168-1.452-.168c-.366-.042-.69.198-.732.54-.048.342.216.654.576.696l1.446.168"/><path fill="#fff" stroke-width=".23399999999999999" d="M164.442 129.168c0-.348.294-.624.66-.624.366 0 .66.276.66.624 0 .342-.294.624-.66.624-.366 0-.66-.282-.66-.624"/><path fill="#ad1519" stroke-width=".23399999999999999" d="M170.142 130.296l-.726-.954-2.022.258 1.614 1.176 1.134-.48"/></g><g stroke-width=".52"><path fill="#ccc" stroke-width=".312" d="M150.294 206.598c-7.848 0-15.63-1.92-22.17-5.124-4.818-2.388-8.016-7.2-8.016-12.714v-19.98h60.252v19.98c0 5.514-3.192 10.326-8.016 12.714-6.54 3.204-14.196 5.124-22.05 5.124z"/><path fill="#ffd691" stroke-width=".312" d="M151.746 197.73c1.254.378 1.89 1.314 1.89 2.406 0 1.428-1.38 2.508-3.18 2.508-1.794 0-3.252-1.08-3.252-2.508 0-1.074.6-2.28 1.848-2.364 0 0-.036-.114-.144-.3-.132-.138-.384-.396-.384-.396s.474-.09.75.012c.276.108.462.282.462.282s.126-.258.312-.456c.18-.198.42-.318.42-.318s.276.228.366.384c.09.162.15.354.15.354s.252-.21.474-.294c.222-.09.504-.156.504-.156s-.078.276-.132.414c-.054.138-.084.432-.084.432"/><path fill="#058e6e" stroke-width=".312" d="M150.192 204.192s-2.388-1.608-3.42-1.824c-1.326-.282-2.814-.054-3.456-.09.018.018.774.558 1.104.888.33.33 1.434.99 2.058 1.146 1.932.486 3.714-.12 3.714-.12M150.876 204.336s1.524-1.596 3.126-1.812c1.89-.264 3.132.156 3.864.348.018 0-.606.294-.936.522-.33.222-1.182.942-2.484.954-1.308.018-2.748-.138-2.982-.102l-.588.09"/><path fill="#ad1519" stroke-width=".312" d="M150.414 202.368a3.034 3.034 0 01.006-4.458 3.048 3.048 0 01-.006 4.458"/><path fill="#058e6e" stroke-width=".312" d="M149.808 205.626s.366-.912.402-1.698c.036-.654-.09-1.302-.09-1.302h.48s.234.696.234 1.302c0 .612-.108 1.422-.108 1.422s-.33.048-.438.102c-.114.054-.48.174-.48.174"/><g fill="#c8b100"><path fill="#ad1519" stroke-width=".312" d="M150.192 188.742c0 7.896-6.696 14.292-15.03 14.292s-15.09-6.396-15.09-14.292v-20.01h30.12v20.01"/><path stroke-width=".312" d="M120.018 188.472c.09 4.212 1.77 7.35 3.438 9.402v-29.682h-3.396zM126.648 200.538c.942.498 2.232 1.332 3.618 1.662l-.09-34.176h-3.528zM133.368 202.95c1.38.138 2.406.114 3.522 0v-34.926h-3.522zM139.992 202.2c1.38-.276 2.94-1.134 3.618-1.578v-32.598h-3.528zM146.886 197.544c1.47-1.308 2.85-4.272 3.354-7.656l.084-21.864h-3.522z"/></g><g transform="scale(.6)"><path fill="#ad1519" d="M300.65 281.22v33.35c0 13.16-11.28 23.82-25.17 23.82-13.9 0-25.16-10.66-25.16-23.82v-33.35h50.33"/><path id="e" fill="#c8b100" stroke="#c8b100" stroke-width=".26" d="M272.71 306.14c.05-.14.12-.27.19-.4l-4.26-4.74-1.67.72-3.06-3.39 1-1.46-5.34-5.99c-.07.02-.2.02-.27.04l.03 4.02 1.75.5v4.46l-1.75.48-.03 4.08c.84.26 1.48.88 1.74 1.67l3.21.01.51-1.67h4.72l.5 1.67zm-6.98-18.5v1.61h2.76v-1.61zm-7.3 20.37c.64 0 1.16-.49 1.16-1.1 0-.61-.52-1.11-1.16-1.11-.65 0-1.17.5-1.17 1.11 0 .61.52 1.1 1.17 1.1zm15.99-9.73l-1.76-.48v-4.46l1.76-.5-.01-1.92c-.85-.25-1.51-.87-1.79-1.67h-2.68l-.51 1.67h-4.71l-.51-1.67h-3.09c-.08.22-.17.42-.29.61l5.38 5.96 1.67-.71 3.06 3.4-1 1.45 4.18 4.64c.09-.04.18-.08.28-.12zm-7.25-1.39l-1.29 1.04 1.77 1.98 1.29-1.05zm8.004 36.186c-1.24-.065-2.255-.902-2.514-2.016-1.67-.23-3.25-.66-4.73-1.3l.84-1.43c1.29.55 2.66.91 4.08 1.11.31-.66.86-1.16 1.58-1.4l.01-5.62-1.76-.49v-4.46l1.76-.48v-7.64a.882.882 0 01-.2-.09l-3.98 4.42 1 1.44-3.06 3.4-1.67-.71-3.3 3.67c.57.87.55 2-.11 2.85a15.58 15.58 0 003.24 2.75l-.84 1.44c-1.42-.89-2.7-1.99-3.79-3.22-.87.26-1.86.11-2.6-.5-1.15-.93-1.29-2.56-.3-3.64l.14-.16c-.69-1.56-1.16-3.24-1.32-5l1.71.01c.14 1.5.51 2.93 1.09 4.27.49-.06 1-.01 1.46.16l3.32-3.68-1-1.45 3.06-3.4 1.67.72 3.99-4.43a2.15 2.15 0 01-.21-.46l-2.76.01-.5 1.67h-4.72l-.51-1.67-3.24-.01c-.27.76-.9 1.36-1.69 1.62l-.01 4.04-1.71-.01v-4.01c-1.1-.33-1.91-1.31-1.91-2.47 0-1.15.82-2.15 1.92-2.48l.01-4.05-1.76-.48v-4.46l1.76-.5v-4.05c-1.08-.35-1.84-1.32-1.84-2.45 0-1.43 1.22-2.58 2.73-2.58 1.22 0 2.25.74 2.61 1.78h3.09l.51-1.67h4.71l.51 1.67h2.68c.357-1.031 1.363-1.767 2.559-1.78l.071 8.37h-.85v2.61h.845l-.021 21.59h-.784v2.61h.78zm-5.914-18.306l-1.29-1.04-1.78 1.98 1.29 1.04zm-9.96-18.44h-1.69l-.01 2.61h1.7zm9.16 11.41v-1.6h-2.85v1.6zm-10.6 9.69l-1.76-.39-.25-4.45 1.75-.58v2.56c0 .99.09 1.92.26 2.86zm1.46-5.52l1.75.41s.09 2.87.05 2.22c-.04-.74.19 2.24.19 2.24l-1.76.58c-.18-.9-.24-1.84-.24-2.79zm10.81 16.93l.39-1.7c-1.52-.48-2.93-1.18-4.17-2.09l-1.26 1.11c1.48 1.15 3.19 2.08 5.04 2.68zm-.85 1.44l-1.3 1.22c-1.47-.54-2.86-1.26-4.12-2.11l.38-1.77c1.5 1.13 3.21 2.03 5.04 2.66z"/><use width="100%" height="100%" transform="matrix(-1 0 0 1 550.43 0)" xlink:href="#e"/><path fill="#058e6e" stroke="none" d="M272.59 306.94c0-1.44 1.23-2.6 2.74-2.6 1.51 0 2.73 1.16 2.73 2.6 0 1.43-1.22 2.58-2.73 2.58s-2.74-1.15-2.74-2.58"/></g><g fill="#c8b100" stroke-width=".46"><path fill="#ad1519" stroke-width=".312" d="M120.072 168.75h30.108v-33.432h-30.108z"/><path stroke-width=".276" d="M130.404 143.046h-.552v-.552h-.972v2.214h.972v1.53h-2.082v4.434h1.11v8.874h-2.22v4.578h17.052v-4.578h-2.214v-8.874h1.11v-4.434h-2.082v-1.53h.972v-2.214h-.972v.552h-.558v-.552h-.966v.552h-.696v-.552h-.972v2.214h.972v1.53h-2.076v-4.854h1.104v-2.22h-1.104v.558h-.558v-.558h-.972v.558h-.552v-.558h-1.11v2.22h1.11v4.854h-2.082v-1.53h.972v-2.214h-.972v.552h-.552v-.552h-1.11zm-3.744 21.078h17.052m-17.052-1.11h17.052m-17.052-1.11h17.052m-17.052-1.11h17.052m-17.052-1.248h17.052m-14.832-.972h12.618m-12.618-1.11h12.618m-12.618-1.248h12.618m-12.618-1.104h12.618m-12.618-1.11h12.618m-12.618-1.11h12.618m-12.618-1.11h12.618m-13.728-1.11h14.838m-14.838-1.11h14.838m-14.838-1.11h14.838m-14.838-1.104h14.838m-12.756-1.11h10.674m-6.378-1.11h2.082m-2.082-1.11h2.082m-2.082-1.11h2.082m-2.082-1.11h2.082m-3.192-1.386h4.296m-7.482 4.716h2.214m-3.186-1.386h4.158m-4.158 20.382v-1.11m0-1.11v-1.11m-1.11 1.11v1.11m2.082 0v-1.11m1.104 2.22v-1.11m0-1.11v-1.11m0-1.248v-.972m0-1.11v-1.248m-1.104 4.578v-1.248m-2.082 1.248v-1.248m4.296 0v1.248m.972-1.248v-.972m-3.186-1.11v1.11m2.214-1.11v1.11m2.082-1.11v1.11m-1.11-1.11v-1.248m1.11-1.104v1.104m0-3.324v1.11m-1.11-2.22v1.11m1.11-2.22v1.11m-2.082-1.11v1.11m-2.214-1.11v1.11m-.972-2.22v1.11m2.076-1.11v1.11m2.082-1.11v1.11m1.11-2.22v1.11m-2.082-1.11v1.11m-2.214-1.11v1.11m-.972-2.214v1.104m4.158-1.104v1.104m-2.082-3.324v1.11m9.57-1.11h-2.22m3.192-1.386h-4.164m4.164 20.382v-1.11m0-1.11v-1.11m1.11 1.11v1.11m-2.082 0v-1.11m-1.11 2.22v-1.11m0-1.11v-1.11m0-1.248v-.972m0-1.11v-1.248m1.11 4.578v-1.248m2.082 1.248v-1.248m-4.302 0v1.248m-.972-1.248v-.972m3.192-1.11v1.11m-2.22-1.11v1.11m-2.076-1.11v1.11m1.104-1.11v-1.248m-1.104-1.104v1.104m0-3.324v1.11m1.104-2.22v1.11m-1.104-2.22v1.11m2.076-1.11v1.11m2.22-1.11v1.11m.972-2.22v1.11m-2.082-1.11v1.11m-2.082-1.11v1.11m-1.104-2.22v1.11m2.076-1.11v1.11m2.22-1.11v1.11m.972-2.214v1.104m-4.164-1.104v1.104m2.082-3.324v1.11m-4.296 11.226v-1.248m0-3.324v-1.11m0 3.33v-1.11m0-3.33v-1.11m0-1.11v-1.104m0-2.22v-1.11m0-1.11v-1.11m-5.268 2.91h2.214m2.082-3.324h2.082m2.076 3.324h2.22"/><path stroke-width=".276" d="M138.03 164.124v-2.916c0-.552-.276-2.22-2.91-2.22-2.496 0-2.772 1.668-2.772 2.22v2.916z"/><path stroke-width=".276" d="M133.314 161.346l-1.386-.138c0-.552.138-1.386.558-1.662l1.248.972c-.138.138-.42.552-.42.828zM135.672 159.96l.696-1.248c-.276-.138-.834-.276-1.248-.276-.276 0-.834.138-1.11.276l.69 1.248zM137.058 161.346l1.386-.138c0-.552-.138-1.386-.552-1.662l-1.248.972c.138.138.414.552.414.828zM133.038 156.498v-3.054c0-.828-.552-1.524-1.524-1.524s-1.524.696-1.524 1.524v3.054zM137.334 156.498v-3.054c0-.828.558-1.524 1.53-1.524.966 0 1.524.696 1.524 1.524v3.054zM132.066 149.01l.138-2.772h-2.634l.282 2.772zM136.23 149.01l.276-2.772h-2.634l.138 2.772zM138.306 149.01l-.276-2.772h2.772l-.276 2.772z"/><g fill="#0039f0" stroke="none"><path d="M137.058 164.124v-2.496c0-.42-.276-1.668-1.938-1.668-1.524 0-1.806 1.248-1.806 1.668v2.496zM132.762 156.216v-2.634c0-.69-.414-1.386-1.248-1.386-.834 0-1.248.696-1.248 1.386v2.634zM137.616 156.216v-2.634c0-.69.414-1.386 1.248-1.386.828 0 1.248.696 1.248 1.386v2.634z"/></g></g><g><path fill="#ccc" stroke-width=".312" d="M150.168 168.75h30.192v-33.432h-30.192z"/><path fill="#db4446" stroke-width=".23399999999999999" d="M165.558 143.556l.03-.372.054-.204s-.966.078-1.476-.066a3.699 3.699 0 01-1.44-.75c-.474-.408-.66-.66-1.002-.708-.816-.132-1.44.24-1.44.24s.612.222 1.068.786c.456.564.954.846 1.17.918.354.108 1.596.03 1.932.042a22.57 22.57 0 011.104.114z"/><g fill="none" stroke-width=".39"><path fill="#ed72aa" stroke-width=".23399999999999999" d="M170.076 142.2s.006.432.048.84c.036.402-.132.744-.066.966.066.222.096.396.18.558.084.156.126.564.126.564s-.228-.168-.444-.324a8.256 8.256 0 00-.36-.264l.06.618c.024.186.132.534.306.744.174.198.522.534.63.798.108.27.084.864.084.864s-.276-.45-.522-.534c-.234-.084-.756-.372-.756-.372s.474.474.474.93c0 .45-.192.96-.192.96s-.216-.408-.498-.672c-.282-.27-.678-.54-.678-.54s.312.702.312 1.17c0 .474-.09 1.482-.09 1.482s-.234-.384-.474-.576c-.24-.186-.522-.348-.612-.468-.084-.126.288.384.324.696.042.306.192 1.41 1.152 2.814.564.822 1.434 2.262 3.3 1.788 1.866-.468 1.176-2.982.78-4.152-.39-1.17-.588-2.466-.564-2.922.024-.45.348-1.782.306-2.034-.042-.246-.144-1.2.084-1.968.24-.798.438-1.11.57-1.44.126-.33.234-.516.276-.804.042-.288.042-.822.042-.822s.348.636.438.864c.084.228.084.9.084.9s.066-.672.588-1.002c.522-.33 1.128-.678 1.278-.864.15-.186.198-.306.198-.306s-.048 1.152-.372 1.602c-.216.294-1.062 1.254-1.062 1.254s.438-.168.738-.18c.306-.024.522 0 .522 0s-.372.288-.846.984c-.48.696-.282.756-.63 1.332-.348.576-.63.6-1.068.948-.648.522-.3 2.604-.216 2.916.09.306 1.218 2.856 1.242 3.474.018.618.126 1.998-.96 2.88-.696.57-1.842.576-2.106.738-.258.168-.774.678-.774 1.746 0 1.074.384 1.236.69 1.506.306.264.696.12.78.33.09.204.132.324.264.45.126.12.216.264.174.492-.048.228-.546.738-.72 1.11-.174.366-.522 1.338-.522 1.482 0 .144-.042.594.108.822 0 0 .546.636.174.756-.24.084-.468-.15-.582-.12-.324.084-.498.282-.588.27-.216-.042-.216-.15-.24-.456-.018-.306-.006-.432-.102-.432-.132 0-.198.108-.222.27-.024.162-.024.534-.174.534s-.366-.27-.498-.33-.498-.12-.522-.288c-.018-.162.216-.51.456-.576.24-.06.456-.18.306-.306-.156-.12-.306-.12-.456 0-.15.126-.474.024-.456-.162.024-.186.066-.414.042-.516-.018-.102-.282-.306.06-.492.354-.186.504.162.852.102.348-.06.516-.186.648-.39.132-.204.108-.636-.132-.9-.234-.27-.474-.312-.564-.48-.084-.162-.216-.552-.216-.552s.066.72.024.822c-.042.102-.024.534-.024.534s-.234-.27-.432-.474c-.192-.204-.39-.822-.39-.822s-.018.576-.018.804c0 .222.258.432.174.516-.09.078-.498-.432-.612-.516-.108-.084-.456-.348-.606-.636-.15-.288-.264-.696-.306-.846-.042-.144-.114-.786-.042-.948.108-.24.282-.678.282-.678h-.846c-.456 0-.78-.138-.954.168-.174.306-.09.924.126 1.728.222.798.348 1.188.288 1.332-.066.144-.348.474-.456.534-.114.066-.414.042-.546-.018-.126-.06-.342-.162-.756-.162s-.672.018-.822-.018c-.156-.042-.528-.228-.702-.186-.174.042-.474.192-.39.432.132.366-.126.45-.306.432-.174-.024-.318-.084-.54-.144-.216-.066-.54 0-.498-.252.042-.246.132-.264.24-.444.108-.192.15-.312.024-.324-.15-.012-.306-.03-.42.066-.12.096-.306.306-.456.228-.156-.084-.276-.258-.276-.648 0-.384-.408-.72-.03-.702.372.018.846.288.93.078.084-.21.036-.306-.168-.468-.204-.162-.456-.258-.186-.462.27-.21.336-.21.444-.324.102-.108.246-.474.438-.384.372.18.012.438.39.852.372.414.606.564 1.236.498.624-.066.798-.144.798-.324 0-.174-.054-.492-.072-.624-.012-.126.09-.594.09-.594s-.288.18-.378.354c-.078.174-.252.48-.252.48s-.066-.36-.048-.654c.012-.174.072-.474.066-.534a5.118 5.118 0 00-.138-.564s-.096.438-.168.564c-.066.126-.096.642-.096.642s-.402-.348-.288-.93c.078-.45-.072-1.044.066-1.236.132-.198.45-.984 1.236-1.014.78-.03 1.386.03 1.662.018.27-.018 1.236-.198 1.236-.198s-1.782-.912-2.184-1.188c-.408-.27-1.038-.978-1.242-1.296-.204-.324-.39-.948-.39-.948s-.318.012-.612.174a3.08 3.08 0 00-.744.594c-.168.192-.438.63-.438.63s.048-.564.048-.738c0-.174-.036-.516-.036-.516s-.198.768-.606 1.056c-.408.294-.882.69-.882.69s.048-.426.048-.528c0-.096.102-.594.102-.594s-.288.432-.726.516c-.444.078-1.086.066-1.14.336-.048.27.12.642.018.834-.102.192-.324.324-.324.324s-.252-.21-.474-.228a.87.87 0 00-.426.096s-.186-.24-.114-.402c.066-.156.402-.396.324-.498-.09-.096-.36.036-.528.114-.168.084-.528.162-.492-.114.03-.27.12-.432.03-.624-.084-.192-.03-.318.108-.366.132-.048.672.012.726-.114.048-.126-.132-.288-.492-.366-.354-.084-.528-.294-.342-.468.192-.18.24-.228.324-.384.084-.162.12-.456.444-.306.318.144.252.498.594.606.336.114 1.134-.048 1.302-.144.168-.096.714-.498.9-.594.186-.09.966-.672.966-.672s-.456-.318-.63-.48c-.168-.162-.468-.546-.624-.63-.15-.078-.9-.366-1.152-.384-.252-.012-1.032-.288-1.032-.288s.354-.114.474-.21c.114-.096.384-.336.522-.318.132.012.168.012.168.012s-.726-.03-.882-.078c-.15-.048-.594-.324-.762-.324-.168 0-.504.066-.504.066s.456-.288.828-.354c.372-.06.66-.048.66-.048s-.576-.162-.714-.348c-.132-.198-.27-.48-.372-.612-.102-.126-.168-.336-.354-.354-.186-.018-.51.228-.696.21-.186-.018-.324-.132-.342-.402-.012-.276 0-.18-.06-.324-.072-.144-.342-.48-.09-.558.258-.084.798.048.852-.048.048-.096-.288-.39-.51-.498-.222-.114-.576-.306-.39-.468.186-.156.372-.222.474-.366.102-.144.222-.546.444-.42.216.126.522.756.696.708.168-.048.18-.498.15-.69-.036-.192 0-.528.168-.498.168.03.306.258.576.276.27.012.678-.066.642.126-.03.192-.186.426-.372.636-.18.216-.27.63-.15.9.12.276.426.714.696.888.27.174.78.306 1.104.51.318.21 1.068.804 1.32.87.252.066.51.192.51.192s.288-.126.678-.126c.39 0 1.284.06 1.626-.084.342-.144.78-.384.648-.69-.138-.306-.882-.576-.816-.816.066-.24.342-.258.798-.276.456-.012 1.08.084 1.2-.564.12-.636.156-1.008-.486-1.152-.648-.144-1.122-.162-1.242-.624-.12-.468-.234-.582-.102-.708.138-.126.372-.192.846-.222.48-.036 1.02-.036 1.176-.15.15-.108.18-.414.366-.546.186-.126.918-.24.918-.24s.876.426 1.68 1.026c.726.54 1.38 1.338 1.38 1.338"/><path stroke-width=".23399999999999999" d="M161.4 146.034s-.48.138-.66.402c-.222.318-.204.642-.204.642s.408-.336.936-.198c.522.144.576.198.798.18.222-.018.762-.21.762-.21s-.444.516-.39.87c.048.348.114.51.102.69-.036.432-.36.966-.36.966s.186-.114.63-.21a2.76 2.76 0 001.05-.486c.234-.174.54-.612.54-.612s-.096.6 0 .852c.102.264.138 1.002.138 1.002s.282-.252.51-.372c.114-.066.42-.228.54-.42.084-.132.192-.636.192-.636s.066.54.234.804c.168.252.42 1.044.42 1.044s.174-.516.36-.726c.186-.21.408-.48.42-.642.018-.162-.048-.51-.048-.51l.234.51m-6.846.366s.288-.498.558-.66c.276-.156.648-.444.75-.48.096-.03.54-.276.54-.276m.594 3.102s.654-.33.846-.45c.408-.24.696-.672.696-.672"/><path stroke-width=".156" d="M169.542 144.54s-.204-.288-.252-.39c-.054-.09-.138-.288-.138-.288"/><path stroke-width=".23399999999999999" d="M166.998 154.446s1.224.756 1.188 1.386c-.036.624-.678 1.446-.678 1.446"/></g><path stroke-width=".156" d="M163.83 141.744s-.102-.288-.12-.372c-.018-.078-.072-.174-.072-.174s.528 0 .51.162c-.012.162-.168.162-.204.222-.03.066-.114.162-.114.162z"/><path stroke-width=".03" d="M166.236 140.91l-.036-.258s.462 0 .678.156c.342.24.558.612.546.63-.06.054-.324-.162-.51-.222 0 0-.138.03-.27.03-.138 0-.204-.066-.222-.126-.018-.072.018-.18.018-.18z"/><g stroke-width=".26"><path stroke-width=".156" d="M163.848 144.084l.198-.318.204.294-.402.024M164.334 144.072l.24-.318.258.288-.498.03M164.118 142.098l.492.174-.444.228-.048-.402M164.712 142.26l.438.108-.354.276-.084-.384"/></g><g fill="#db4446" stroke-width=".39"><path stroke-width=".23399999999999999" d="M157.128 141.648s.288.204.51.24c.222.03.456.03.492.03.03 0 .102-.324.066-.546-.12-.72-.78-.882-.78-.882s.198.438.102.642a1.92 1.92 0 01-.39.516zM155.754 142.272s-.258-.462-.798-.402c-.54.066-.9.486-.9.486s.6-.018.75.078c.222.144.288.516.288.516s.324-.192.426-.324c.096-.126.234-.354.234-.354zM155.094 144.15s-.462.066-.714.354c-.258.294-.216.84-.216.84s.3-.324.57-.324a4 4 0 01.696.096s-.132-.336-.132-.48c0-.144-.204-.486-.204-.486zM156.636 150.222s-.252-.27-.696-.192c-.444.084-.732.582-.732.582s.378-.102.6-.048c.216.048.372.27.372.27s.204-.174.27-.27c.066-.096.186-.342.186-.342zM156.126 152.004s-.372-.06-.696.198c-.318.258-.336.75-.336.75s.306-.258.546-.222c.234.03.522.162.522.162s.048-.306.066-.384c.054-.228-.102-.504-.102-.504zM156.996 153.648s-.03.474.198.768c.24.306.678.354.678.354s-.144-.318-.168-.48c-.036-.24.204-.45.204-.45s-.222-.228-.438-.228c-.222 0-.474.036-.474.036zM161.4 157.872s-.306-.384-.726-.372c-.426.018-.87.414-.87.414s.528-.042.666.132c.138.18.27.402.27.402s.24-.126.342-.21c.102-.078.318-.366.318-.366zM160.098 159.558s-.558-.084-.834.21c-.27.288-.252.816-.252.816s.336-.366.642-.336c.306.03.648.192.648.192s-.054-.318-.09-.468c-.03-.144-.114-.414-.114-.414zM161.304 161.34s-.276.384-.072.69c.204.306.63.45.63.45s-.156-.222-.084-.48c.054-.204.402-.48.402-.48zM168.744 162.066s-.486-.114-.762.048c-.27.156-.492.834-.492.834s.444-.372.768-.324c.318.048.558.18.558.18s.048-.276.012-.468c-.018-.114-.084-.27-.084-.27zM168.984 163.86s-.372.384-.24.708c.138.324.372.66.372.66s-.012-.48.138-.612c.222-.192.63-.222.63-.222s-.324-.288-.426-.324c-.102-.03-.474-.21-.474-.21zM170.85 164.424s-.186.468.168.768c.354.312.666.342.666.342s-.276-.486-.192-.738a.95.95 0 01.324-.432s-.444-.15-.51-.132c-.066.012-.456.192-.456.192z"/></g><g fill="#c8b100" stroke-width=".26"><path stroke-width=".156" d="M169.728 139.626l-.174.012a.895.895 0 01-.156.21c-.156.15-.39.168-.516.042a.291.291 0 01-.084-.246.295.295 0 01-.306-.006c-.156-.09-.192-.3-.084-.474.018-.036.036-.084.066-.108l-.012-.192-.21.048-.06.114c-.132.15-.324.186-.42.102a.315.315 0 01-.078-.162.221.221 0 01-.102.066c-.324.078-.45-.63-.462-.81l-.102.15s.096.42.048.78a4.214 4.214 0 01-.174.714c.444.114 1.116.48 1.782.99.666.51 1.188 1.068 1.404 1.452 0 0 .348-.192.708-.306.36-.114.816-.12.816-.12l.132-.126c-.192.03-.948.06-.936-.258 0-.048.042-.108.048-.108a.418.418 0 01-.18-.036c-.108-.078-.108-.258.012-.414l.108-.078.006-.204-.204.03c-.018.024-.066.054-.09.078-.162.138-.39.15-.516.018a.25.25 0 01-.066-.276.348.348 0 01-.27-.03c-.156-.09-.186-.312-.066-.48a.8.8 0 01.186-.192l-.042-.18z"/><g fill="#000" stroke-width=".05"><path stroke-width=".03" d="M168.378 140.04c.03-.042.09-.036.138 0 .048.036.06.096.036.126-.03.036-.09.036-.144-.006-.042-.03-.06-.09-.03-.12zM168.948 140.514l-.198-.15c-.036-.024-.042-.072-.024-.096.024-.024.072-.024.108 0l.198.156.198.15c.03.024.048.072.024.096-.024.024-.072.024-.108 0l-.198-.156M167.904 139.8l-.156-.09c-.042-.024-.06-.072-.042-.102.018-.03.066-.036.102-.012l.156.096.156.09c.036.018.054.066.042.096-.018.03-.066.036-.102.012l-.156-.09M167.28 139.374c.03-.036.096-.036.144 0 .048.042.06.096.03.132-.03.03-.09.03-.138-.006-.048-.036-.06-.09-.036-.126zM169.578 140.952c.03-.03.018-.084-.03-.126-.048-.036-.114-.036-.144 0-.024.03-.012.09.036.126.048.036.108.036.138 0zM169.92 141.348l.132.126c.03.03.078.042.108.018.024-.024.024-.066-.006-.096l-.126-.126-.132-.126c-.03-.03-.084-.042-.108-.018-.03.018-.024.066.006.096l.126.126M170.49 141.834c.03-.036.018-.09-.03-.126-.048-.042-.108-.042-.138-.006-.03.036-.018.09.03.132.048.03.108.036.138 0z"/></g><use stroke-width=".156" xlink:href="#reuse-0"/><use stroke-width=".156" xlink:href="#reuse-0"/><path stroke-width=".156" d="M167.88 138.504l-.012.324.552.072.09-.042-.012-.09-.318-.426-.3.162"/><path stroke-width=".156" d="M169.02 139.152l-.294.162-.324-.426-.006-.09.084-.036.558.066-.018.324"/><path stroke-width=".156" d="M168.306 138.75a.173.173 0 01.234-.054.154.154 0 01.06.222.173.173 0 01-.234.054.156.156 0 01-.06-.222zM167.016 138.21c-.012.006-.078-.276-.156-.426-.048-.114-.234-.258-.234-.258.018-.03.252-.114.522.054.228.186-.018.522-.018.522s-.054.084-.114.108z"/><path stroke-width=".156" d="M167.634 138.396l-.252.222-.408-.36.036-.048.018-.09.552-.042.054.318"/><path stroke-width=".156" d="M166.944 138.174c.03-.09.108-.138.168-.12.066.024.09.108.06.198-.03.09-.108.138-.174.12-.066-.024-.09-.108-.054-.198zM170.202 139.062l-.354-.036-.15.51.03.084.09.006.498-.246-.114-.318"/><path stroke-width=".156" d="M169.206 139.218l-.06.324.54.138.09-.024.006-.084-.258-.474-.318.12"/><path stroke-width=".156" d="M170.238 140.016l-.318.12-.252-.468.006-.09.09-.018.534.138-.06.318"/><path stroke-width=".156" d="M169.59 139.524a.177.177 0 01.24-.024c.078.054.09.156.03.228-.06.072-.168.078-.246.024a.157.157 0 01-.024-.228zM171.384 140.166l.066.33-.522.18-.096-.024-.006-.084.216-.486.342.084"/><path stroke-width=".156" d="M171.294 141.12l-.336.078-.186-.498.024-.09.09-.012.51.21-.102.312"/><path stroke-width=".156" d="M170.382 140.196l-.108.312.51.204.096-.012.018-.084-.18-.498-.336.078"/><path stroke-width=".156" d="M170.946 140.778a.163.163 0 00.012-.234.19.19 0 00-.246-.012c-.066.066-.072.168-.006.234.06.066.174.072.24.012zM171.774 141.858c0 .006.3.018.474.054.12.024.312.162.312.162.036-.024.072-.252-.168-.474-.234-.168-.528.132-.528.132s-.072.072-.09.126z"/><path stroke-width=".156" d="M171.45 141.324l-.174.276.456.306.054-.048.078-.024-.072-.528-.342.018"/><path stroke-width=".156" d="M171.822 141.918c.084-.042.126-.132.09-.186-.036-.054-.132-.06-.216-.012-.084.048-.12.132-.084.186.03.054.126.06.21.012z"/></g></g><g stroke-width=".61" transform="scale(.6)"><ellipse cx="250.43" cy="281.01" fill="#ad1519" rx="16.26" ry="18.3"/><ellipse cx="250.44" cy="280.97" fill="#005bbf" rx="11.44" ry="13.42"/><g id="f" fill="#c8b100" stroke-width=".34"><path stroke-linejoin="round" d="M245.03 271.74s-1.35 1.48-1.35 2.86c0 1.39.57 2.54.57 2.54-.21-.55-.76-.94-1.41-.94-.83 0-1.5.63-1.5 1.42 0 .22.14.58.24.77l.49.99c.16-.37.54-.57.98-.57.59 0 1.08.45 1.08 1.01 0 .09-.01.17-.04.25l-1.22.01v1.03h1.09l-.81 1.61 1.07-.42.81.91.84-.91 1.07.42-.8-1.61h1.08v-1.03l-1.22-.01c-.02-.08-.02-.16-.02-.25 0-.56.47-1.01 1.06-1.01.44 0 .82.2.98.57l.49-.99c.1-.19.24-.55.24-.77 0-.79-.67-1.42-1.49-1.42-.66 0-1.21.39-1.41.94 0 0 .57-1.15.57-2.54 0-1.38-1.39-2.86-1.39-2.86z"/><path d="M242.87 281.11h4.36v-1.03h-4.36z"/></g><use width="100%" height="100%" x="10.63" xlink:href="#f"/><use width="100%" height="100%" x="5.31" y="9.14" xlink:href="#f"/></g></g></g></svg>
